Normalized EMG Linear Envelopes
nRows=257
nColumns=4

endheader
time	 med_gas_r	  soleus_r	 tib_ant_r	
3.42619	  0.183799	  0.132304	  0.049739	
3.45946	  0.187487	  0.131258	  0.049766	
3.49272	  0.192090	  0.129924	  0.049585	
3.52598	  0.195914	  0.128569	  0.049387	
3.55925	  0.196433	  0.127601	  0.049324	
3.59251	  0.193524	  0.127317	  0.049474	
3.62578	  0.189310	  0.127831	  0.049918	
3.65904	  0.185326	  0.128756	  0.050544	
3.6923	  0.181903	  0.129545	  0.051057	
3.72557	  0.179285	  0.130361	  0.051296	
3.75883	  0.177514	  0.131280	  0.051267	
3.7921	  0.175653	  0.132159	  0.050815	
3.82536	  0.174982	  0.133436	  0.049916	
3.85862	  0.176974	  0.135189	  0.048939	
3.89189	  0.181727	  0.137112	  0.047999	
3.92515	  0.187815	  0.139502	  0.047066	
3.95842	  0.192736	  0.142644	  0.046288	
3.99168	  0.194199	  0.146288	  0.045743	
4.02494	  0.192550	  0.149811	  0.045289	
4.05821	  0.190716	  0.152547	  0.044810	
4.09147	  0.190660	  0.153601	  0.044366	
4.12474	  0.192841	  0.152541	  0.043969	
4.158	  0.196195	  0.149596	  0.043586	
4.19126	  0.198401	  0.145709	  0.043382	
4.22453	  0.197649	  0.141977	  0.043474	
4.25779	  0.195478	  0.139109	  0.043884	
4.29106	  0.193292	  0.137342	  0.044695	
4.32432	  0.191506	  0.135896	  0.045793	
4.35758	  0.189531	  0.134027	  0.046892	
4.39085	  0.186400	  0.131832	  0.047854	
4.42411	  0.182279	  0.129540	  0.048735	
4.45738	  0.178952	  0.127307	  0.049437	
4.49064	  0.177354	  0.125120	  0.049837	
4.5239	  0.177743	  0.122939	  0.050085	
4.55717	  0.179998	  0.121208	  0.050313	
4.59043	  0.183024	  0.120260	  0.050380	
4.6237	  0.184259	  0.120044	  0.050092	
4.65696	  0.181901	  0.120798	  0.049632	
4.69022	  0.177083	  0.122336	  0.049066	
4.72349	  0.171816	  0.124008	  0.048476	
4.75675	  0.167688	  0.125011	  0.048072	
4.79002	  0.165550	  0.124873	  0.048188	
4.82328	  0.165082	  0.123702	  0.048897	
4.85654	  0.165820	  0.121984	  0.049839	
4.88981	  0.168891	  0.120101	  0.050487	
4.92307	  0.174789	  0.118640	  0.050332	
4.95634	  0.182999	  0.118017	  0.049066	
4.9896	  0.192031	  0.118425	  0.047002	
5.02286	  0.200367	  0.120439	  0.044531	
5.05613	  0.207995	  0.124704	  0.042231	
5.08939	  0.214728	  0.131442	  0.040785	
5.12266	  0.219208	  0.140470	  0.041251	
5.15592	  0.219339	  0.151360	  0.044794	
5.18918	  0.215997	  0.162704	  0.052420	
5.22245	  0.211488	  0.172033	  0.065061	
5.25571	  0.207228	  0.176906	  0.083326	
5.28898	  0.203491	  0.176407	  0.106990	
5.32224	  0.201662	  0.171445	  0.134775	
5.3555	  0.202705	  0.164082	  0.164032	
5.38877	  0.205858	  0.156475	  0.191839	
5.42203	  0.208734	  0.149922	  0.217906	
5.4553	  0.209864	  0.145169	  0.242427	
5.48856	  0.210437	  0.142182	  0.266618	
5.52182	  0.210583	  0.140480	  0.291928	
5.55509	  0.209800	  0.139490	  0.318095	
5.58835	  0.208052	  0.138801	  0.342952	
5.62162	  0.206989	  0.137834	  0.365827	
5.65488	  0.207361	  0.136367	  0.387969	
5.68814	  0.208088	  0.134591	  0.408744	
5.72141	  0.207717	  0.133085	  0.428060	
5.75467	  0.207391	  0.132350	  0.445648	
5.78794	  0.207777	  0.132755	  0.460167	
5.8212	  0.209036	  0.134013	  0.472318	
5.85446	  0.210437	  0.135315	  0.484186	
5.88773	  0.212062	  0.136136	  0.498928	
5.92099	  0.215217	  0.135959	  0.514939	
5.95426	  0.220263	  0.134683	  0.529069	
5.98752	  0.227333	  0.132515	  0.545933	
6.02078	  0.236666	  0.130379	  0.569591	
6.05405	  0.250437	  0.129179	  0.598867	
6.08731	  0.269019	  0.129480	  0.634457	
6.12058	  0.290694	  0.131097	  0.676223	
6.15384	  0.311095	  0.133494	  0.720809	
6.1871	  0.327375	  0.135882	  0.761709	
6.22037	  0.335802	  0.137944	  0.789219	
6.25363	  0.335324	  0.139952	  0.797997	
6.2869	  0.330961	  0.142349	  0.793532	
6.32016	  0.326594	  0.145737	  0.786080	
6.35342	  0.324333	  0.150153	  0.778069	
6.38669	  0.324119	  0.154907	  0.768505	
6.41995	  0.324110	  0.159619	  0.756613	
6.45322	  0.321475	  0.163938	  0.741071	
6.48648	  0.318994	  0.167782	  0.725061	
6.51974	  0.320395	  0.171057	  0.713153	
6.55301	  0.326085	  0.174005	  0.706968	
6.58627	  0.331634	  0.176561	  0.705085	
6.61954	  0.330792	  0.177989	  0.709919	
6.6528	  0.323304	  0.177955	  0.723873	
6.68606	  0.314560	  0.176510	  0.743719	
6.71933	  0.309406	  0.174262	  0.767029	
6.75259	  0.309418	  0.172031	  0.787975	
6.78586	  0.312705	  0.170462	  0.798098	
6.81912	  0.320132	  0.169612	  0.798781	
6.85238	  0.332238	  0.169540	  0.798357	
6.88565	  0.346508	  0.170725	  0.800449	
6.91891	  0.356953	  0.172785	  0.808049	
6.95218	  0.360716	  0.175033	  0.820209	
6.98544	  0.362751	  0.177378	  0.832029	
7.0187	  0.366912	  0.179898	  0.839510	
7.05197	  0.373235	  0.182877	  0.842701	
7.08523	  0.381987	  0.186205	  0.845318	
7.1185	  0.390603	  0.189086	  0.851529	
7.15176	  0.395223	  0.191044	  0.866453	
7.18502	  0.396730	  0.192258	  0.889412	
7.21829	  0.396568	  0.192238	  0.913290	
7.25155	  0.394657	  0.189942	  0.927850	
7.28482	  0.388363	  0.185155	  0.926571	
7.31808	  0.380817	  0.178344	  0.912875	
7.35134	  0.375810	  0.171115	  0.897424	
7.38461	  0.375351	  0.165337	  0.885635	
7.41787	  0.378699	  0.161503	  0.877682	
7.45114	  0.381744	  0.159363	  0.870033	
7.4844	  0.384236	  0.158837	  0.862424	
7.51766	  0.386467	  0.159940	  0.857677	
7.55093	  0.387045	  0.162215	  0.854460	
7.58419	  0.383762	  0.165134	  0.850876	
7.61746	  0.377018	  0.168859	  0.846367	
7.65072	  0.372024	  0.173233	  0.841319	
7.68398	  0.372799	  0.177621	  0.835402	
7.71725	  0.379519	  0.181286	  0.831322	
7.75051	  0.388554	  0.184500	  0.833200	
7.78378	  0.399847	  0.188888	  0.843631	
7.81704	  0.413158	  0.194625	  0.866049	
7.8503	  0.426387	  0.200519	  0.897349	
7.88357	  0.433668	  0.205239	  0.927383	
7.91683	  0.432268	  0.206869	  0.948897	
7.9501	  0.427288	  0.205417	  0.956929	
7.98336	  0.423489	  0.202084	  0.949602	
8.01662	  0.421894	  0.197465	  0.931716	
8.04989	  0.418567	  0.192020	  0.908650	
8.08315	  0.411993	  0.187461	  0.884937	
8.11642	  0.404986	  0.184967	  0.866979	
8.14968	  0.400824	  0.184708	  0.855644	
8.18294	  0.399947	  0.185952	  0.848452	
8.21621	  0.397906	  0.187367	  0.841135	
8.24947	  0.393978	  0.187540	  0.829678	
8.28274	  0.390579	  0.186642	  0.818701	
8.316	  0.388344	  0.185884	  0.814889	
8.34926	  0.384443	  0.186295	  0.820805	
8.38253	  0.377286	  0.188652	  0.836603	
8.41579	  0.370411	  0.193464	  0.858698	
8.44906	  0.367953	  0.199812	  0.880874	
8.48232	  0.368734	  0.205420	  0.896333	
8.51558	  0.367181	  0.208029	  0.902295	
8.54885	  0.363106	  0.206822	  0.904101	
8.58211	  0.361887	  0.202701	  0.905024	
8.61538	  0.365396	  0.197415	  0.905069	
8.64864	  0.370447	  0.192627	  0.899612	
8.6819	  0.373412	  0.188851	  0.886284	
8.71517	  0.374846	  0.186108	  0.869358	
8.74843	  0.377204	  0.184197	  0.854772	
8.7817	  0.380555	  0.182844	  0.847774	
8.81496	  0.382617	  0.181783	  0.852172	
8.84822	  0.384718	  0.181524	  0.866937	
8.88149	  0.388511	  0.182515	  0.886096	
8.91475	  0.394463	  0.184707	  0.900157	
8.94802	  0.399061	  0.188107	  0.906014	
8.98128	  0.402160	  0.192144	  0.902464	
9.01454	  0.405269	  0.196488	  0.887236	
9.04781	  0.408274	  0.200562	  0.860302	
9.08107	  0.410638	  0.203272	  0.825266	
9.11434	  0.412920	  0.204504	  0.782614	
9.1476	  0.415686	  0.203987	  0.738659	
9.18086	  0.416671	  0.202255	  0.699910	
9.21413	  0.413957	  0.200135	  0.670920	
9.24739	  0.410519	  0.198361	  0.656816	
9.28066	  0.409817	  0.197751	  0.657655	
9.31392	  0.410034	  0.198349	  0.671076	
9.34718	  0.407342	  0.199408	  0.692042	
9.38045	  0.403390	  0.200596	  0.714511	
9.41371	  0.402900	  0.201733	  0.735031	
9.44698	  0.405187	  0.202230	  0.750764	
9.48024	  0.406685	  0.201096	  0.757693	
9.5135	  0.406556	  0.198441	  0.755780	
9.54677	  0.408353	  0.194929	  0.747073	
9.58003	  0.413414	  0.191067	  0.733243	
9.6133	  0.419074	  0.187450	  0.715291	
9.64656	  0.422905	  0.185146	  0.696282	
9.67982	  0.427032	  0.184636	  0.675538	
9.71309	  0.433463	  0.184861	  0.655297	
9.74635	  0.437602	  0.184431	  0.640836	
9.77962	  0.435381	  0.183161	  0.632638	
9.81288	  0.432153	  0.180929	  0.630890	
9.84614	  0.431434	  0.177855	  0.633173	
9.87941	  0.429897	  0.173745	  0.632980	
9.91267	  0.419927	  0.168885	  0.625846	
9.94594	  0.403787	  0.163237	  0.612797	
9.9792	  0.387646	  0.157108	  0.595321	
10.0125	  0.372439	  0.151819	  0.571979	
10.0457	  0.354532	  0.148565	  0.543399	
10.079	  0.334607	  0.147439	  0.513901	
10.1123	  0.317849	  0.148280	  0.485371	
10.1455	  0.307453	  0.151247	  0.455306	
10.1788	  0.302787	  0.155778	  0.422066	
10.212	  0.299953	  0.162367	  0.389629	
10.2453	  0.296219	  0.171994	  0.358756	
10.2786	  0.295312	  0.185074	  0.326602	
10.3118	  0.299243	  0.201474	  0.292330	
10.3451	  0.306636	  0.221456	  0.257220	
10.3784	  0.311578	  0.244837	  0.223678	
10.4116	  0.311092	  0.270546	  0.193940	
10.4449	  0.310153	  0.295705	  0.169233	
10.4782	  0.312299	  0.314754	  0.150197	
10.5114	  0.318364	  0.318274	  0.137368	
10.5447	  0.325563	  0.301594	  0.129914	
10.578	  0.327877	  0.273199	  0.126613	
10.6112	  0.327171	  0.240992	  0.127180	
10.6445	  0.330553	  0.210324	  0.131197	
10.6777	  0.341379	  0.184827	  0.136814	
10.711	  0.356654	  0.166565	  0.142399	
10.7443	  0.367586	  0.155407	  0.147538	
10.7775	  0.370759	  0.150041	  0.151252	
10.8108	  0.372698	  0.149126	  0.152685	
10.8441	  0.376219	  0.150825	  0.151902	
10.8773	  0.378968	  0.153126	  0.149409	
10.9106	  0.373863	  0.154518	  0.145980	
10.9439	  0.361837	  0.154675	  0.142529	
10.9771	  0.351317	  0.153626	  0.139240	
11.0104	  0.346380	  0.152052	  0.136640	
11.0436	  0.344776	  0.150580	  0.134652	
11.0769	  0.341657	  0.149261	  0.132437	
11.1102	  0.339508	  0.148080	  0.130139	
11.1434	  0.341812	  0.147037	  0.128341	
11.1767	  0.346935	  0.146751	  0.126339	
11.21	  0.349689	  0.147360	  0.123657	
11.2432	  0.347743	  0.148342	  0.121287	
11.2765	  0.344402	  0.148954	  0.119393	
11.3098	  0.343091	  0.148451	  0.117455	
11.343	  0.344080	  0.146476	  0.115382	
11.3763	  0.343248	  0.143924	  0.113122	
11.4096	  0.338742	  0.141744	  0.110487	
11.4428	  0.333940	  0.140355	  0.107651	
11.4761	  0.331917	  0.139542	  0.105135	
11.5093	  0.332952	  0.138906	  0.102761	
11.5426	  0.332405	  0.138328	  0.099895	
11.5759	  0.326707	  0.138773	  0.096976	
11.6091	  0.319536	  0.140717	  0.095090	
11.6424	  0.314817	  0.143728	  0.094505	
11.6757	  0.313232	  0.146763	  0.094439	
11.7089	  0.313757	  0.149516	  0.094694	
11.7422	  0.312630	  0.151860	  0.094723	
11.7755	  0.305239	  0.153785	  0.093658	
11.8087	  0.295305	  0.155214	  0.091364	
11.842	  0.288390	  0.156107	  0.088766	
11.8752	  0.287452	  0.156331	  0.086766	
11.9085	  0.292706	  0.155814	  0.085201	
11.9418	  0.301169	  0.154635	  0.083224	
